<mxfile host="app.diagrams.net" modified="2021-12-20T09:31:32.197Z" agent="5.0 (X11; Linux x86_64) AppleWebKit/537.36 (KHTML, like Gecko) Chrome/93.0.4577.63 Safari/537.36" etag="HOs97T3YOIR0AhpcE_-m" version="15.7.0" type="github">
  <diagram id="prtHgNgQTEPvFCAcTncT" name="Page-1">
    <mxGraphModel dx="1350" dy="745" grid="1" gridSize="10" guides="1" tooltips="1" connect="1" arrows="1" fold="1" page="1" pageScale="1" pageWidth="827" pageHeight="1169" math="0" shadow="0">
      <root>
        <mxCell id="0" />
        <mxCell id="1" parent="0" />
        <mxCell id="dNxyNK7c78bLwvsdeMH5-19" value="Application Manager" style="swimlane;html=1;childLayout=stackLayout;resizeParent=1;resizeParentMax=0;horizontal=0;startSize=20;horizontalStack=0;" parent="1" vertex="1">
          <mxGeometry x="50" y="60" width="700" height="570" as="geometry" />
        </mxCell>
        <mxCell id="dNxyNK7c78bLwvsdeMH5-20" value="ui" style="swimlane;html=1;startSize=20;horizontal=0;" parent="dNxyNK7c78bLwvsdeMH5-19" vertex="1">
          <mxGeometry x="20" width="680" height="210" as="geometry" />
        </mxCell>
        <mxCell id="PNj0kwJh2AixpFaTBNuD-2" value="add listener&lt;br&gt;update ui" style="whiteSpace=wrap;html=1;" vertex="1" parent="dNxyNK7c78bLwvsdeMH5-20">
          <mxGeometry x="344" y="85" width="117.5" height="40" as="geometry" />
        </mxCell>
        <mxCell id="PNj0kwJh2AixpFaTBNuD-17" value="" style="shape=flexArrow;endArrow=classic;html=1;rounded=0;" edge="1" parent="dNxyNK7c78bLwvsdeMH5-20">
          <mxGeometry width="50" height="50" relative="1" as="geometry">
            <mxPoint x="403.5" y="225" as="sourcePoint" />
            <mxPoint x="403.5" y="125" as="targetPoint" />
            <Array as="points">
              <mxPoint x="403.5" y="185" />
            </Array>
          </mxGeometry>
        </mxCell>
        <mxCell id="dNxyNK7c78bLwvsdeMH5-21" value="backend" style="swimlane;html=1;startSize=20;horizontal=0;" parent="dNxyNK7c78bLwvsdeMH5-19" vertex="1">
          <mxGeometry x="20" y="210" width="680" height="170" as="geometry" />
        </mxCell>
        <mxCell id="PNj0kwJh2AixpFaTBNuD-4" value="install/uninstall" style="whiteSpace=wrap;html=1;" vertex="1" parent="dNxyNK7c78bLwvsdeMH5-21">
          <mxGeometry x="60" y="70" width="110" height="40" as="geometry" />
        </mxCell>
        <mxCell id="PNj0kwJh2AixpFaTBNuD-10" value="process" style="rounded=1;whiteSpace=wrap;html=1;" vertex="1" parent="dNxyNK7c78bLwvsdeMH5-21">
          <mxGeometry x="310" y="60" width="80" height="30" as="geometry" />
        </mxCell>
        <mxCell id="PNj0kwJh2AixpFaTBNuD-11" value="status" style="rounded=1;whiteSpace=wrap;html=1;" vertex="1" parent="dNxyNK7c78bLwvsdeMH5-21">
          <mxGeometry x="420" y="60" width="80" height="30" as="geometry" />
        </mxCell>
        <mxCell id="PNj0kwJh2AixpFaTBNuD-12" value="error" style="rounded=1;whiteSpace=wrap;html=1;" vertex="1" parent="dNxyNK7c78bLwvsdeMH5-21">
          <mxGeometry x="310" y="100" width="80" height="30" as="geometry" />
        </mxCell>
        <mxCell id="PNj0kwJh2AixpFaTBNuD-13" value="finished" style="rounded=1;whiteSpace=wrap;html=1;" vertex="1" parent="dNxyNK7c78bLwvsdeMH5-21">
          <mxGeometry x="420" y="100" width="80" height="30" as="geometry" />
        </mxCell>
        <mxCell id="PNj0kwJh2AixpFaTBNuD-14" value="" style="rounded=0;whiteSpace=wrap;html=1;strokeColor=default;dashed=1;fillColor=none;" vertex="1" parent="dNxyNK7c78bLwvsdeMH5-21">
          <mxGeometry x="280" y="30" width="260" height="120" as="geometry" />
        </mxCell>
        <mxCell id="PNj0kwJh2AixpFaTBNuD-15" value="" style="shape=flexArrow;endArrow=classic;html=1;rounded=0;" edge="1" parent="dNxyNK7c78bLwvsdeMH5-21">
          <mxGeometry width="50" height="50" relative="1" as="geometry">
            <mxPoint x="400" y="230" as="sourcePoint" />
            <mxPoint x="400" y="130" as="targetPoint" />
            <Array as="points">
              <mxPoint x="400" y="190" />
            </Array>
          </mxGeometry>
        </mxCell>
        <mxCell id="PNj0kwJh2AixpFaTBNuD-7" value="" style="edgeStyle=orthogonalEdgeStyle;rounded=0;orthogonalLoop=1;jettySize=auto;html=1;" edge="1" parent="dNxyNK7c78bLwvsdeMH5-19" source="PNj0kwJh2AixpFaTBNuD-4" target="PNj0kwJh2AixpFaTBNuD-6">
          <mxGeometry relative="1" as="geometry" />
        </mxCell>
        <mxCell id="dNxyNK7c78bLwvsdeMH5-22" value="packagekit" style="swimlane;html=1;startSize=20;horizontal=0;" parent="dNxyNK7c78bLwvsdeMH5-19" vertex="1">
          <mxGeometry x="20" y="380" width="680" height="190" as="geometry" />
        </mxCell>
        <mxCell id="PNj0kwJh2AixpFaTBNuD-6" value="install/uninstall" style="whiteSpace=wrap;html=1;" vertex="1" parent="dNxyNK7c78bLwvsdeMH5-22">
          <mxGeometry x="60" y="70" width="110" height="40" as="geometry" />
        </mxCell>
        <mxCell id="PNj0kwJh2AixpFaTBNuD-16" value="result signal" style="rounded=1;whiteSpace=wrap;html=1;strokeColor=default;fillColor=none;" vertex="1" parent="dNxyNK7c78bLwvsdeMH5-22">
          <mxGeometry x="344" y="70" width="120" height="40" as="geometry" />
        </mxCell>
        <mxCell id="PNj0kwJh2AixpFaTBNuD-3" value="" style="edgeStyle=orthogonalEdgeStyle;rounded=0;orthogonalLoop=1;jettySize=auto;html=1;" edge="1" parent="1" source="PNj0kwJh2AixpFaTBNuD-1" target="PNj0kwJh2AixpFaTBNuD-2">
          <mxGeometry relative="1" as="geometry" />
        </mxCell>
        <mxCell id="PNj0kwJh2AixpFaTBNuD-5" value="" style="edgeStyle=orthogonalEdgeStyle;rounded=0;orthogonalLoop=1;jettySize=auto;html=1;" edge="1" parent="1" source="PNj0kwJh2AixpFaTBNuD-1" target="PNj0kwJh2AixpFaTBNuD-4">
          <mxGeometry relative="1" as="geometry" />
        </mxCell>
        <mxCell id="PNj0kwJh2AixpFaTBNuD-1" value="install/uninstall" style="whiteSpace=wrap;html=1;" vertex="1" parent="1">
          <mxGeometry x="130" y="80" width="110" height="40" as="geometry" />
        </mxCell>
      </root>
    </mxGraphModel>
  </diagram>
</mxfile>
